<svg xmlns="http://www.w3.org/2000/svg" data-name="Слой 1" viewBox="0 0 54.34 113.75" x="0px" y="0px"><title>Лист монстеры2</title><path d="M60.29,39a.31.31,0,0,0,.18.31,6.94,6.94,0,0,0,2.85.82,11.24,11.24,0,0,1,2.08.24,23,23,0,0,0,7.31-.09,12.3,12.3,0,0,0,2.14-.74c.6-.21.66-.14.72.5a19.34,19.34,0,0,0,.76,4.53A3.67,3.67,0,0,1,76.54,46a1.31,1.31,0,0,1-1.11,1.37,7.92,7.92,0,0,1-2.32.23c-1.13-.05-2.26-.08-3.4-.06a19,19,0,0,1-4.38-.6,11,11,0,0,1-3.16-1,3.28,3.28,0,0,1-1.11-.76,2.86,2.86,0,0,0-1-.76,2.85,2.85,0,0,0,1.4,2.12,10.63,10.63,0,0,0,4.08,1.88,19.07,19.07,0,0,0,7.3.09,24.18,24.18,0,0,1,2.55-.41c.89-.09,1.16.2,1,1.07-.13.71-.36,1.41-.56,2.11a1.29,1.29,0,0,1-.76.79,4,4,0,0,1-2.91.23,15.88,15.88,0,0,0-3.34-.57,35,35,0,0,1-4.44-.82,7,7,0,0,1-2.35-1c-.17-.11-.36-.36-.56-.16s0,.4.09.59c.16.51.61.81.94,1.19a12.79,12.79,0,0,1,.82,1,8,8,0,0,0,2.14,1.83,25.11,25.11,0,0,0,2.34,1.42,9.88,9.88,0,0,0,1.94.79l4,1c.81.21,1.66.07,2.49.23a1.16,1.16,0,0,1,1.06.88,5.81,5.81,0,0,1,.13,3.25,14.7,14.7,0,0,1-.76,2.55,6.8,6.8,0,0,1-2.8,3.15,5,5,0,0,0-2.11,2,.84.84,0,0,1-1.08.45,9.24,9.24,0,0,1-3.47-1.67,27.33,27.33,0,0,0-2.46-1.54A12.12,12.12,0,0,1,61,63.64a27.08,27.08,0,0,1-1.69-2.15,2.72,2.72,0,0,0,.47,1.41c.46.7.92,1.39,1.37,2.1a6.57,6.57,0,0,0,1.31,1.42c1,.85,1.89,1.76,2.88,2.58a14.85,14.85,0,0,0,2.16,1.41,9.92,9.92,0,0,0,2.88,1.42c.53.12.58.44.12.77a14,14,0,0,0-2,1.72,1.76,1.76,0,0,0-.33.34c-.44.87-1.26.92-2.07,1A10.52,10.52,0,0,1,64,75.48a20.34,20.34,0,0,1-6.44-1.75,11.73,11.73,0,0,1-3-1.94c-.18-.16-.38-.49-.66-.35s-.23.47-.26.74c-.18,1.82-.07,3.66-.15,5.49s.35,3.8.42,5.72a26.57,26.57,0,0,0,.25,3.78c.39,2.25-.14,4.45-.3,6.67a2.92,2.92,0,0,1-.31,1.08A1.74,1.74,0,0,1,51.86,96c-.43,0-.86,0-1.29,0s-.59-.23-.47-.64a5.65,5.65,0,0,1,.43-1,11.2,11.2,0,0,0,.88-3.42c.41-2.33.11-4.67.16-7,0-.89,0-1.78,0-2.67a33.6,33.6,0,0,0-.39-4A38.59,38.59,0,0,1,51,72.72a.33.33,0,0,0-.09-.34,3.56,3.56,0,0,0-1,.21,30.81,30.81,0,0,1-4.58.41,22,22,0,0,1-5.55-.23,26.53,26.53,0,0,1-7.92-3.11A16.14,16.14,0,0,0,29,68.2a8.66,8.66,0,0,1-1.51-.78,1.79,1.79,0,0,1-.76-1,20.07,20.07,0,0,1-1.21-3.93,6.89,6.89,0,0,0-.26-.85c-.11-.41,0-.57.41-.56a5.09,5.09,0,0,1,1.29.13,3.08,3.08,0,0,0,1.51,0A36,36,0,0,0,34,59.39a27,27,0,0,1,5.16-1.58,9.13,9.13,0,0,0,1.91-.64c.37-.17,1-.33.8-.83s-.7-.26-1.08-.19a20.85,20.85,0,0,1-2.09.22c-1.38.09-2.73-.23-4.11-.14-.13,0-.27,0-.4,0a22,22,0,0,1-6.92-1A9.59,9.59,0,0,1,24.68,54a4,4,0,0,1-1.26-1.33,1.28,1.28,0,0,1-.18-.94c.11-.55.2-1.11.34-1.66s.22-1.16.36-1.73a6.75,6.75,0,0,1,1.68-3.6c.3-.27.57-.49,1-.2a11.68,11.68,0,0,0,5.26,1.68A22.86,22.86,0,0,0,39.73,46c.53-.11,1.05-.25,1.57-.4.12,0,.26-.13.24-.29s-.17-.17-.3-.2c-1.56-.33-3.11-.65-4.66-1a9.29,9.29,0,0,1-2.75-1.13,7.38,7.38,0,0,0-3.26-1.09,3.38,3.38,0,0,1-1.08-.28c-.85-.35-1.71-.67-2.57-1a1.69,1.69,0,0,1-.93-.73,1,1,0,0,1-.08-1.13c.33-.54.36-1.18.64-1.74.39-.77.71-.84,1.34-.25a4.87,4.87,0,0,0,1.87,1.1,19.29,19.29,0,0,0,3.44.88,11.89,11.89,0,0,1,1.65.37,12.14,12.14,0,0,0,3.45.27l4.2-.16a.59.59,0,0,0,.43-.1c0-.06,0-.1,0-.1-1.76-.15-3.45-.76-5.25-.75A20.82,20.82,0,0,1,33,37.69a12.12,12.12,0,0,1-3.17-1.55,4.66,4.66,0,0,1-2-2.51,1.57,1.57,0,0,1,0-1.24,15.2,15.2,0,0,1,1.44-2.88c.51-.8.79-1.71,1.32-2.5.39-.58.56-.63.94-.05a1.74,1.74,0,0,0,.5.51,15.59,15.59,0,0,0,5.85,2.45,6.26,6.26,0,0,0,1.37,0,30,30,0,0,0,5.41-.9.24.24,0,0,0,.21-.22c-.07-.21-.28-.21-.45-.27-1.23-.47-2.5-.82-3.7-1.38-.53-.25-1-.56-1.58-.8a21.07,21.07,0,0,1-5.4-3.16,7.69,7.69,0,0,1-1.22-1.7.44.44,0,0,1,0-.53,6.69,6.69,0,0,0,1.11-2.91c.26-1,.54-2,.79-3a7.12,7.12,0,0,1,1-2.1c.38-.57.54-.55,1.05-.1a17.59,17.59,0,0,1,2.23,2.65,19.63,19.63,0,0,0,4.28,4,11,11,0,0,1,2.35,1.95c.44.56,1.16.78,1.71,1.21a.28.28,0,0,0,.37,0c.13-.12,0-.24,0-.37a16,16,0,0,0-1.84-3c-1.11-1.72-2.37-3.34-3.41-5.11-.46-.79-1-1.51-1.55-2.26a7.2,7.2,0,0,1-.78-1.51,1.1,1.1,0,0,1,.48-1.58,8.64,8.64,0,0,0,.88-.83,15,15,0,0,1,5-2.85,4.7,4.7,0,0,1,3.68.42,7,7,0,0,0,2.64.68,22.29,22.29,0,0,1,3.91.53,8.16,8.16,0,0,1,3.06,1.56A16,16,0,0,0,61.6,10c.75.38.85.92.42,1.67a24.83,24.83,0,0,0-2,4.74,19.62,19.62,0,0,1-1.73,3.46c-.52.91-1.3,1.64-1.84,2.54-.15.25-.4.44-.45.76.16.22.39.13.58.08a4.75,4.75,0,0,0,1.87-.92c1.1-.94,2.2-1.9,3.22-2.94a11.69,11.69,0,0,0,2.26-3.32c.22-.46.47-.91.73-1.35s.49-.42.75-.05a8.67,8.67,0,0,1,1.78,3.76,2.61,2.61,0,0,0,.13.63,1.21,1.21,0,0,1-.36,1.52,21.58,21.58,0,0,1-1.77,1.53,4.8,4.8,0,0,0-1.8,2.13,6.89,6.89,0,0,1-2.55,3.05l-1.65,1.17-.18.15c-.09.1-.2.21-.14.36s.22.13.35.11a11,11,0,0,0,4.56-1.74,51.6,51.6,0,0,0,4.4-3.54,9,9,0,0,0,1.57-1.95,7,7,0,0,1,.44-.67c.24-.29.42-.29.64,0C72,23.14,73.07,25.1,73,27.47a3.66,3.66,0,0,0,.34,1.72c.22.5.43,1,.67,1.47a4.73,4.73,0,0,1,.21,3.08,1.16,1.16,0,0,1-.74.9l-1.91.86c-1.71.72-3.34,1.62-5.08,2.3a15.12,15.12,0,0,1-5.18,1.11A1.9,1.9,0,0,0,60.29,39ZM70.48,21.85A5.83,5.83,0,0,0,69.6,23a6.12,6.12,0,0,1-1.17,1.32c-1.45,1.25-2.93,2.45-4.49,3.57A12.15,12.15,0,0,1,59,29.69a.66.66,0,0,1-.78-.43.69.69,0,0,1,.24-.93c.55-.37,1.08-.8,1.64-1.17a7.53,7.53,0,0,0,2.83-3.24,4.43,4.43,0,0,1,1.29-1.73c.54-.45,1.07-.91,1.63-1.32.71-.53,1.15-1.13.75-2.05a.93.93,0,0,1,0-.24,6.77,6.77,0,0,0-1.2-2.89c-.3-.42-.43-.41-.69,0-.15.26-.27.53-.4.79a13,13,0,0,1-2.67,3.73c-.81.75-1.61,1.5-2.46,2.22A6.31,6.31,0,0,1,55.68,24c-.22,0-.45.1-.61-.1s0-.48.09-.67c.48-.71,1-1.44,1.5-2.1a15.25,15.25,0,0,0,2.59-4.35,33,33,0,0,1,2.27-5.26c.29-.48.24-.61-.21-.94a7,7,0,0,1-1-.69,11.65,11.65,0,0,0-1.7-1.36,6.1,6.1,0,0,0-2.48-1.13c-1.3-.23-2.6-.38-3.92-.5a7.43,7.43,0,0,1-2.79-.75A4.46,4.46,0,0,0,45.54,6a15.52,15.52,0,0,0-5,3.36.78.78,0,0,0-.24.86,4.14,4.14,0,0,0,.48,1c.52.92,1.23,1.71,1.76,2.61,1.37,2.29,3,4.41,4.44,6.65.44.68.82,1.39,1.19,2.11.23.44,0,.7-.47.75a1.71,1.71,0,0,1-1.22-.33,7.42,7.42,0,0,1-2-1.67c-.12-.19-.34-.26-.51-.39-1.1-.82-2.25-1.57-3.29-2.47a21.53,21.53,0,0,1-3.44-3.94,4.37,4.37,0,0,0-.88-.94c-.43-.34-.49-.32-.82.14a2.46,2.46,0,0,0-.37.72c-.19.61-.37,1.23-.58,1.84-.53,1.52-.57,3.2-1.47,4.6a.5.5,0,0,0-.06.53A3.29,3.29,0,0,0,34,22.74a20.72,20.72,0,0,0,4.09,2.54,41.66,41.66,0,0,0,6.77,2.81,1.33,1.33,0,0,1,.73.47c.27.37.21.64-.2.84a1.09,1.09,0,0,1-.38.14,43.61,43.61,0,0,1-5.32,1,6.38,6.38,0,0,1-1.69,0,17,17,0,0,1-6.3-2.6c-.74-.49-.73-.5-1.2.28a2.37,2.37,0,0,0-.19.35,15.67,15.67,0,0,1-1.17,2.22,9.86,9.86,0,0,0-.6,1.32,2.44,2.44,0,0,0,.6,2.76A8.68,8.68,0,0,0,32.72,37a19,19,0,0,0,5.26.67,8.25,8.25,0,0,1,2.16.27,10.06,10.06,0,0,0,2.31.39,17.79,17.79,0,0,1,2.29.44c.25.06.5.18.48.47s-.33.37-.56.34a20.66,20.66,0,0,0-2.49.13c-1.05,0-2.1.06-3.14.12a14.67,14.67,0,0,1-3.31-.13c-1-.18-2-.34-3-.58-1.8-.42-3.65-.75-5.13-2-.2-.18-.41-.18-.51.1-.23.57-.45,1.15-.64,1.74a.79.79,0,0,0,.48,1,7.13,7.13,0,0,0,.91.35,17.32,17.32,0,0,0,3.69,1.13,7,7,0,0,1,2.69,1,8.72,8.72,0,0,0,2.46,1c1.6.37,3.18.84,4.81,1.09a2,2,0,0,1,.47.11.53.53,0,0,1,.24.9,1.47,1.47,0,0,1-.81.5,27.88,27.88,0,0,1-3.72.76,18.26,18.26,0,0,1-4.18,0c-2.33-.25-4.68-.38-6.74-1.67a.58.58,0,0,0-.85.15A4.35,4.35,0,0,0,24.94,47a47.09,47.09,0,0,0-1.09,4.7,1.14,1.14,0,0,0,.32,1.11,6.43,6.43,0,0,0,3.22,1.86,23.07,23.07,0,0,0,6.74,1c.11,0,.22,0,.33,0,1.53,0,3,.32,4.58.2a7.79,7.79,0,0,0,1.52-.18,4.2,4.2,0,0,1,1.37-.06c.3,0,.61.07.72.41a.87.87,0,0,1-.21.83,2.55,2.55,0,0,1-1,.71,15.11,15.11,0,0,1-2.3.76,25.37,25.37,0,0,0-4.47,1.36,30.89,30.89,0,0,1-4.11,1.45c-1.5.38-3,1-4.61.66a13.61,13.61,0,0,0,1,3.77,3.07,3.07,0,0,0,1.39,1.71c.64.36,1.34.53,2,.87A49.54,49.54,0,0,0,35.72,71a20,20,0,0,0,6.88,1.56c1.87,0,3.71-.19,5.57-.24A8.78,8.78,0,0,0,50,72a2.57,2.57,0,0,0,2-1.65,4.61,4.61,0,0,0,.26-1.59c-.06-1,.06-1.94,0-2.91a53.83,53.83,0,0,1,.5-6.83c.26-2.08.38-4.18.6-6.27.19-1.84.42-3.69.46-5.54a49.25,49.25,0,0,0,0-5c-.11-1.32-.25-2.63-.43-3.93a24.1,24.1,0,0,0-1.2-6.24,1.35,1.35,0,0,1-.12-.79.27.27,0,0,1,.21-.22.2.2,0,0,1,.23.17A20.75,20.75,0,0,1,53.4,34c.45,2.74.76,5.49,1,8.25a50.7,50.7,0,0,1-.13,7.5c-.11,1.94-.38,3.86-.55,5.79-.16,1.74-.23,3.49-.53,5.22a6.92,6.92,0,0,0-.16,1.36c0,.54,0,1.07-.08,1.61-.09,1.59-.13,3.17-.19,4.76a3.43,3.43,0,0,0,0,.56,1.11,1.11,0,0,0,.34.71A15,15,0,0,0,57.27,73a16.77,16.77,0,0,0,4.16,1.53c.86.18,1.75.28,2.62.44a11.36,11.36,0,0,0,2,.12,1.89,1.89,0,0,0,1.73-.84,8.69,8.69,0,0,1,.66-.7,12.4,12.4,0,0,1,1.47-1.23,45.07,45.07,0,0,1-4.51-2.58,3.8,3.8,0,0,1-.62-.52c-.86-.77-1.73-1.53-2.57-2.32a7.6,7.6,0,0,1-1.61-1.79,14.86,14.86,0,0,0-1.12-1.68,6.1,6.1,0,0,1-1-2.62,1.12,1.12,0,0,1,0-.48.29.29,0,0,1,.38-.2.62.62,0,0,1,.43.34,13.65,13.65,0,0,0,1.89,2.7,12.36,12.36,0,0,0,3,2.88c1.59,1,3.21,2,4.83,2.94a4.1,4.1,0,0,0,1.28.47.8.8,0,0,0,1-.42,5.22,5.22,0,0,1,2.12-1.91,6.07,6.07,0,0,0,2.72-3.2,20.65,20.65,0,0,0,.62-2.34,4.38,4.38,0,0,0-.14-2.7.74.74,0,0,0-.7-.55A25.66,25.66,0,0,1,69.48,57,8.52,8.52,0,0,1,68,56.5a28.94,28.94,0,0,1-3-1.78A8.06,8.06,0,0,1,63,53a15.11,15.11,0,0,0-1.51-1.78,3.52,3.52,0,0,1-.8-1.74c-.12-.49.17-.71.65-.53a3.73,3.73,0,0,1,.72.36,12.12,12.12,0,0,0,5,1.66c1.93.32,3.9.44,5.81.93a3.44,3.44,0,0,0,2-.34.63.63,0,0,0,.37-.41c.18-.59.37-1.18.5-1.79s-.05-.76-.63-.68-1.21.22-1.82.32a17.06,17.06,0,0,1-5.38.28,22,22,0,0,1-2.8-.33,15.11,15.11,0,0,1-3.64-1.7,4.41,4.41,0,0,1-2.08-2.84.83.83,0,0,1,0-.56c.16-.4.44-.5.73-.17s1,.76,1.37,1.26a1.81,1.81,0,0,0,.73.47,16.28,16.28,0,0,0,3.55,1,16.68,16.68,0,0,0,4.88.51c.51,0,1,0,1.54,0a14.84,14.84,0,0,0,2.66-.1c1.06-.2,1.25-.48,1-1.55a.88.88,0,0,0,0-.15,13.12,13.12,0,0,1-.62-2.91A11.15,11.15,0,0,0,75,40.73c-.09-.46-.15-.48-.6-.32a12.52,12.52,0,0,1-2.49.66,29.84,29.84,0,0,1-4.82.15,18,18,0,0,1-2.55-.37,14.8,14.8,0,0,1-3.48-.63,3.84,3.84,0,0,1-1.39-.79c-.41-.44-.31-.75.25-.93a2.63,2.63,0,0,1,1-.11,15.46,15.46,0,0,0,6.61-1.62c1.06-.47,2.09-1,3.14-1.47.81-.37,1.65-.67,2.43-1.11a1,1,0,0,0,.53-.75,4.35,4.35,0,0,0-.43-3.12,5.91,5.91,0,0,1-.8-3.1A9.11,9.11,0,0,0,70.48,21.85ZM53.81,89.19c0-.43-.06-.86-.08-1.29a28.31,28.31,0,0,1-.27-3.05,21.25,21.25,0,0,0-.06-2.26C53.32,81.38,53,80.19,53,79a41.54,41.54,0,0,1,.4-8c.06-.29-.17-.44-.37-.57s-.36.07-.46.2A3.79,3.79,0,0,0,51.49,73c0,1.29,0,2.58.17,3.87a44,44,0,0,1,.44,5.38C52,85.1,52.42,88,52,90.79a11.42,11.42,0,0,1-.89,3.5,5,5,0,0,0-.28.67c-.08.22,0,.34.25.41a1.66,1.66,0,0,0,2.22-1.13,2.88,2.88,0,0,0,.15-.63C53.56,92.14,53.68,90.66,53.81,89.19Z" transform="translate(-23.22 -5)"/><path d="M48.34,67.23a3.6,3.6,0,0,1-.18,1.33A2.73,2.73,0,0,1,45,70.5a11.88,11.88,0,0,1-1.57-.35,22.17,22.17,0,0,0-4.28-.82,6.36,6.36,0,0,1-4.23-1.93,1.61,1.61,0,0,1-.2-2.08,1.52,1.52,0,0,1,1.61-.83,7.84,7.84,0,0,1,1,.11,7.64,7.64,0,0,0,1.85.11,11.92,11.92,0,0,0,4-.63,4.71,4.71,0,0,1,3.23-.2,2.91,2.91,0,0,1,2.07,2.93C48.36,66.92,48.35,67,48.34,67.23ZM45.08,70a2.26,2.26,0,0,0,2.56-1.57c.19-.49,0-1,.1-1.42a2.36,2.36,0,0,0-2.32-2.67,8.17,8.17,0,0,0-2.53.45,5.62,5.62,0,0,1-2,.51,20.16,20.16,0,0,1-4.11-.11,2.55,2.55,0,0,0-.73,0,1,1,0,0,0-.9.69,1,1,0,0,0,.19,1.25,5.2,5.2,0,0,0,2.94,1.56,40.92,40.92,0,0,1,4.53.81A11.12,11.12,0,0,0,45.08,70Z" transform="translate(-23.22 -5)"/><path d="M37.47,50.52a12.78,12.78,0,0,1,3.35.6,4.1,4.1,0,0,0,2.76.2,2.81,2.81,0,0,1,1.6-.06,4.62,4.62,0,0,1,1.94,1.37,2.06,2.06,0,0,1,.28,1.64,1.92,1.92,0,0,1-2,1.7,4,4,0,0,1-1.61-.47,6.42,6.42,0,0,0-4.37-.77,9.79,9.79,0,0,1-5.38-.6,1.81,1.81,0,0,1-1.17-2.27,1.32,1.32,0,0,1,1.16-1C35.15,50.72,36.28,50.64,37.47,50.52Zm-.12.6c-1,.09-2,.16-3,.29-.65.09-.83.4-.86,1.06a1.15,1.15,0,0,0,.8,1.18,8.2,8.2,0,0,0,4.48.65,7.64,7.64,0,0,1,5.32.75,2.51,2.51,0,0,0,1.31.33,1.6,1.6,0,0,0,1.42-.89,1.84,1.84,0,0,0-.34-1.88c-.79-.61-1.61-1.18-2.7-.75a2.52,2.52,0,0,1-.47.13,3.16,3.16,0,0,1-1.9-.11A11,11,0,0,0,37.35,51.12Z" transform="translate(-23.22 -5)"/><path d="M59.2,35.5a1.85,1.85,0,0,1-1.77-.81,1.6,1.6,0,0,1-.22-.68,2.93,2.93,0,0,1,2.18-2.92c.45-.06.91-.11,1.37-.15a5.69,5.69,0,0,0,3.45-1.4c.65-.6,1.34-1.17,2-1.74a2.54,2.54,0,0,1,2.58-.73c.7.23.84.55.51,1.22a2.39,2.39,0,0,0-.2.43A2.89,2.89,0,0,1,67.29,31c-.39.18-.76.41-1.15.6A12.11,12.11,0,0,0,62.88,34,5.32,5.32,0,0,1,59.2,35.5Zm.1-.55a5.27,5.27,0,0,0,3.17-1.36,12.52,12.52,0,0,1,3.83-2.65,3.68,3.68,0,0,0,2.48-2.83c.06-.36,0-.47-.28-.58a1.15,1.15,0,0,0-.71,0,3,3,0,0,0-1.24.73l-2.13,1.86a4.75,4.75,0,0,1-2.2,1.14,10.34,10.34,0,0,1-2,.26A2.34,2.34,0,0,0,58,33.05C57.45,34.14,58,35,59.3,35Z" transform="translate(-23.22 -5)"/><path d="M47.85,13a8,8,0,0,0,.79,3.92,6.43,6.43,0,0,1,.57,2.66c0,.11,0,.22,0,.32,0,.31-.09.62-.41.73s-.54-.15-.71-.4a5.43,5.43,0,0,1-.59-1.05,13.15,13.15,0,0,0-2-3.32,19.76,19.76,0,0,1-2.34-3.38,11.15,11.15,0,0,1-.58-1.33,2.81,2.81,0,0,1,2.48-3.6,2.58,2.58,0,0,1,2.67,2.38A19.66,19.66,0,0,1,47.85,13Zm-.5-.57a9.82,9.82,0,0,0-.23-2.9,2.16,2.16,0,0,0-2.9-1.18A2.28,2.28,0,0,0,43.12,11,13.62,13.62,0,0,0,45,14.27a20.87,20.87,0,0,1,2.38,3.44c.25.56.52,1.12.8,1.67.1.2.18.54.46.45s.16-.42.14-.65a6.34,6.34,0,0,0-.48-1.95A8.82,8.82,0,0,1,47.35,12.41Z" transform="translate(-23.22 -5)"/><path d="M57.29,38.76a2.24,2.24,0,0,1,1.35.49c.45.38.91.75,1.34,1.16a2.92,2.92,0,0,0,2.1.86,10.65,10.65,0,0,1,1.13,0,2.55,2.55,0,0,1,1.22.39A1.22,1.22,0,0,1,65,42.92a1.08,1.08,0,0,1-1.26.64,8.33,8.33,0,0,1-1.64-.39,11,11,0,0,0-3.41-.52H57.8a1.79,1.79,0,0,1-1.89-1.43,3,3,0,0,1-.29-1.08A1.51,1.51,0,0,1,57.29,38.76Zm-.16.57a1,1,0,0,0-.9,1.32c.19.71.54,1.3,1.37,1.39.24,0,.48.07.72.08a12.52,12.52,0,0,1,4.12.62,6.64,6.64,0,0,0,1.27.25c.27,0,.57.06.68-.25s-.12-.51-.35-.65a3.15,3.15,0,0,0-1.87-.37,3.2,3.2,0,0,1-2.63-.95l-1.07-1A1.9,1.9,0,0,0,57.13,39.33Z" transform="translate(-23.22 -5)"/><path d="M64.56,60.68A1.54,1.54,0,0,1,62.43,62,3,3,0,0,1,61,60.82,5.12,5.12,0,0,0,58.71,59a2.51,2.51,0,0,1-1.18-1,2,2,0,0,1,1.55-3.12,1.44,1.44,0,0,1,1.36.53,4,4,0,0,1,.52.72,3.58,3.58,0,0,0,1.42,1.49,5.93,5.93,0,0,1,1.88,2.07A1.93,1.93,0,0,1,64.56,60.68Zm-.57,0A1.25,1.25,0,0,0,63.8,60a4.8,4.8,0,0,0-1.75-2,3.59,3.59,0,0,1-1.52-1.61,2.41,2.41,0,0,0-.58-.77,1,1,0,0,0-1.31-.15c-.37.19-.5.55-.74.83a.84.84,0,0,0-.09,1,2.39,2.39,0,0,0,1.33,1.23,5.13,5.13,0,0,1,2,1.58,8.7,8.7,0,0,0,.9.92,1.36,1.36,0,0,0,1.19.38A.84.84,0,0,0,64,60.63Z" transform="translate(-23.22 -5)"/><path d="M49.2,45.54a2.15,2.15,0,0,1,2.11,1.53,11.63,11.63,0,0,1,.32,3.33,2.17,2.17,0,0,1-2.12,1.92,2.52,2.52,0,0,1-1.78-1,16.49,16.49,0,0,0-2.3-2.56,1.47,1.47,0,0,1,.63-2.5C47.14,46,48.25,45.75,49.2,45.54Zm1.9,3.85c-.29-.52-.11-1.39-.36-2.18a1.5,1.5,0,0,0-1.83-1c-.82.18-1.62.41-2.45.53a.9.9,0,0,0-.71.46A1,1,0,0,0,46,48.59a7.43,7.43,0,0,1,2,2.21c.23.43.69.59,1.07.82a1.07,1.07,0,0,0,1.28-.12A2.17,2.17,0,0,0,51.1,49.39Z" transform="translate(-23.22 -5)"/><path d="M51.89,28.47c-.26-.06-.27-.23-.29-.39-.06-.67-.16-1.34-.18-2a12,12,0,0,0-.3-2.4,75.68,75.68,0,0,1-1.37-8.85c-.13-1.23-.37-2.45-.53-3.68-.1-.83-.15-1.66-.22-2.49a1.22,1.22,0,0,1,0-.33c0-.1,0-.22.17-.24s.22.12.26.24a1,1,0,0,1,.07.39,34.1,34.1,0,0,0,.67,5.61c.19,1.57.3,3.16.55,4.73s.67,3.32,1,5a28.62,28.62,0,0,1,.36,3.45A1.39,1.39,0,0,1,51.89,28.47Z" transform="translate(-23.22 -5)"/><path d="M70.23,65.17a1.56,1.56,0,0,1-2,1.64,6.09,6.09,0,0,1-2.61-1.19c-.15-.12-.28-.26-.43-.36a1.56,1.56,0,0,1-.65-1.89A1.79,1.79,0,0,1,66,62a1,1,0,0,1,.92.14c.9.72,2,1.21,2.85,2A1.16,1.16,0,0,1,70.23,65.17Zm-1.87,1c1,0,1.35-.36,1.28-1.12a1,1,0,0,0-.47-.71c-.79-.63-1.75-1-2.54-1.67-.41-.34-.84-.2-1.2.22a1.26,1.26,0,0,0-.23,1.55A5.1,5.1,0,0,0,68.36,66.22Z" transform="translate(-23.22 -5)"/><path d="M34.92,32.86a4.59,4.59,0,0,1-.45-.14c-.67-.28-1.34-.56-2-.86A3.36,3.36,0,0,1,31,30.74c-.22-.31-.45-.64-.17-1a1.15,1.15,0,0,1,1.32-.29A16,16,0,0,0,35,30.73a1.85,1.85,0,0,1,.86.7.88.88,0,0,1-.05,1A1,1,0,0,1,34.92,32.86Zm-3.15-3c-.35,0-.5.22-.35.48a2.27,2.27,0,0,0,1,1c.61.28,1.22.56,1.84.81s.93.23,1.06-.09-.07-.62-.64-.87c-.9-.41-1.81-.8-2.72-1.2Z" transform="translate(-23.22 -5)"/><text x="0" y="106" fill="#000000" font-size="5px" font-weight="bold" font-family="'Helvetica Neue', Helvetica, Arial-Unicode, Arial, Sans-serif"></text><text x="0" y="111" fill="#000000" font-size="5px" font-weight="bold" font-family="'Helvetica Neue', Helvetica, Arial-Unicode, Arial, Sans-serif"></text></svg>