<svg enable-background="new 0 0 90 90" viewBox="0 0 90 112.5" xmlns="http://www.w3.org/2000/svg"><path d="m37.94281 37.55835c-2.306519-2.562622-7.991272-5.825012-21.132263-1.593506-.019287.006165-.032227.022888-.050964.030212-.089111.034607-.1651.0849-.239502.142029-.036377.027893-.076355.047546-.108582.080139-.092468.093262-.166626.202209-.216675.325439-.002869.006958-.009521.011292-.012207.018372-.000244.000671-.000061.001343-.000305.002014-.046509.122803-.070068.256409-.064148.395935.000366.007996.004761.014343.00531.022278.002502.038086.019287.072205.026123.109802.019104.108032.046875.210205.096497.302185.005249.009583.004211.021118.009766.030579.055664.095703 4.794922 7.903809 14.87793 7.903809 1.697327-.000366 3.552734-.235535 5.555725-.751831-.161072 1.149048-.293213 2.222168-.396545 3.175171-.130371 1.20343-.234985 2.390747-.324402 3.557617h-16.194154c-.552734 0-1 .447754-1 1v4.882324c0 .552246.447266 1 1 1h2.348389l3.940674 26.535156c.073242.490234.494141.853027.989258.853027h29.383789c.495117 0 .916016-.362793.989258-.853027l3.94165-26.535156h2.347412c.552734 0 1-.447754 1-1v-4.882324c0-.552246-.447266-1-1-1h-20.945801c.075623-.924133.160706-1.864929.26416-2.827148.155334-1.439392.375305-3.154053.68042-5.02655 2.941711.89447 5.590759 1.275574 7.964111 1.275574 12.990235-.00049 17.793946-11.333497 17.850586-11.471681.026123-.064026.024414-.132751.036743-.199646.010864-.054443.036438-.103394.037476-.160706.000122-.007629-.003906-.014038-.003967-.021606-.000183-.058228-.020874-.112793-.03125-.170227-.013977-.076538-.022034-.153687-.052429-.223145-.003601-.008301-.002258-.0177-.006104-.02594-.018982-.040588-.054993-.067932-.078918-.105164-.043579-.067993-.084778-.135254-.143127-.190735-.040527-.038574-.088684-.063538-.135132-.094788-.064026-.043335-.126099-.084961-.199585-.112732-.016663-.006287-.028748-.020447-.045776-.025879-12.005615-3.829651-19.486328-.374573-23.130798 2.339966.069092-.233948.13092-.468262.203064-.701782.956604-3.190674 2.241638-6.219727 3.681213-8.752869 1.58429 1.149414 5.080078 3.111755 10.518982 3.111755 3.550781 0 7.927734-.838867 13.130859-3.290527.011963-.005676.018555-.018066.030273-.02417.117981-.061035.223572-.142212.310425-.247803.015747-.019165.025696-.040283.040039-.060547.033691-.047607.071167-.091797.096802-.146484.020752-.044067.019592-.09082.033447-.136047.01001-.032227.034973-.057007.041748-.090515.004822-.023621-.005249-.046631-.002136-.070313.012939-.098145.006836-.192139-.008911-.287781-.007507-.045837-.006958-.090332-.020691-.134705-.041199-.133118-.104248-.258118-.197327-.364441-.002014-.002319-.002258-.005676-.004333-.007996-.000122-.000122-.001099-.00116-.001221-.001282-.000244-.000305-.000549-.00061-.000854-.000977-.111694-.12384-7.36084-8.006409-18.226196-5.060791l.347412-.267517c.310547-.243164.620117-.44873.954102-.628906l.433594-.256836c1.076172-.710449 1.318359-2.367676.59082-4.027344-.432617-.993652-1.232422-1.753418-2.140625-2.032715-.666992-.20459-1.341797-.126465-1.869141.207031l-.481445.283691c-.50293.278809-1.007813.612305-1.481445.976563l-1.012695.747559-.841919.735657c-.622498-2.509338-1.904419-4.5625-3.849487-6.104309-5.102539-4.04248-12.837891-3.145996-13.163086-3.105469-.039551.004883-.072754.027893-.111084.037292-.067261.016541-.130615.034973-.193054.06488-.057312.027344-.107056.061035-.158203.098755-.054382.039917-.103333.08197-.149231.132935-.02063.022827-.049561.035767-.068115.060669-.022827.030579-.028687.068909-.047668.101624-.018921.032104-.048096.054504-.06366.089294-.012939.028992-.01001.059631-.019958.089111-.021545.063171-.034241.125-.042847.191284-.008911.068848-.012573.134277-.007202.202271.002258.030457-.008301.060181-.003235.090576 1.685242 10.013184 9.814758 12.408447 13.511108 12.981506-1.02002 1.456482-1.988892 3.103088-2.881592 4.899841-.913391-2.397156-2.814087-5.92865-6.614868-8.539551-4.817383-3.308594-11.251953-4.168457-19.121094-2.550293-.042969.008789-.077698.036316-.118713.050537-.068604.023743-.13501.045959-.196838.083862-.051392.031372-.09259.071899-.137573.112-.052551.046753-.102722.092163-.144897.149902-.012512.01709-.032104.027161-.043579.045105-.024292.038086-.029053.083435-.047791.123962-.020081.042786-.052246.07666-.066467.123108-.006653.022034-.00116.043823-.006287.065918-.014709.062805-.015747.124573-.018066.189148-.002441.070313-.00531.137817.006714.20575.003479.020203-.002747.040588.002014.060669.042969.185059 4.154297 16.702148 19.978516 16.700684 1.214844-.000366 2.503967-.103638 3.861206-.313416-.165649.497559-.335022.992798-.487183 1.498962-.620243 2.010808-1.12714 4.028569-1.554264 5.983648zm-.552307 2.707641c-.001038.005615-.00238.011536-.003418.01709-3.941711-2.503601-9.085571-3.591919-13.216003-4.055054 10.058837-1.520996 12.736145 2.97815 13.219421 4.037964zm-18.290588-2.354919c3.844971.076904 12.526794.696167 17.875488 4.504761-9.900757 2.904296-15.625061-1.889832-17.875488-4.504761zm36.474304 45.66803h-27.65918l-3.770081-25.388184h35.200317zm7.140625-30.270508v2.882324h-41.94043v-2.882324zm-18.6521-11.845032c.026978-.14447.058411-.293945.086426-.439697 8.750122-5.781799 18.917114-6.894897 22.805847-7.099548-2.033142 3.530944-8.592712 12.003845-22.892273 7.539245zm17.858277-9.042175c-4.65564.693909-11.088623 2.277588-17.200134 5.884583.036865-.161255.069336-.31958.107544-.481506.895629-1.059266 6.21527-6.680482 17.09259-5.403077zm-11.216797-9.316956c.007751-.011719.015808-.021851.023499-.033508 9.665649-1.189453 16.14032-.084106 19.353943.778503-11.080079 4.362732-17.456849.701294-19.377442-.744995zm17.38623-1.769043c-3.296021-.627502-8.159973-1.092407-14.621155-.556396 6.277527-2.656494 11.353028-1.230774 14.621155.556396zm-23.276001-12.128845c1.780273 1.414001 2.89032 3.372437 3.31897 5.82019-2.369873-3.444397-7.364624-6.582214-10.881531-8.496033 2.372803.225831 5.315369.892457 7.562561 2.675843zm-10.366272-1.880737c3.361023 1.695129 10.329834 5.569031 12.459778 9.50592-2.036255-.125854-9.993103-1.15448-12.459778-9.50592zm.431702 9.334839c4.281494 2.928528 5.877197 7.284302 6.375793 9.075256-4.770081-5.667419-14.49646-9.870667-19.948242-11.894714 5.487854-.526673 10.046814.407409 13.572449 2.819458zm-16.233643-1.641297c4.714905 1.638062 17.271545 6.478394 21.807861 12.943237-14.62268 2.693909-20.18518-8.436218-21.807861-12.943237zm22.764893 17.137879c1.763672-5.868652 4.472656-11.155762 7.474609-14.556152.213867-.276367.457031-.521973.69043-.76123.141602-.145508.28125-.288086.413086-.433594.325195-.357422.667969-.6875 1.035156-.995605l.96582-.848633.964844-.70752c.413086-.317871.833008-.596191 1.271484-.838867l.532227-.313965c.020508-.011719.084961-.049316.239258-.002441.28418.087402.670898.405762.895508.921875.367188.837402.245117 1.457031.182617 1.53125l-.353516.208496c-.402344.216309-.808594.485352-1.177734.775879l-.817383.598145-.792969.698242c-.345703.28418-.68457.61084-1.006836.970215-.097656.10791-.201172.212402-.305664.318359-.217773.220215-.463867.469727-.643555.712402-.183594.206238-.364929.444519-.547302.669312-.03418.036377-.064392.072449-.092407.113037-.318542.398438-.633362.822876-.945618 1.273132-.024353.02887-.042908.05957-.063904.091003-2.069641 3.011658-3.966431 7.075623-5.263855 11.403809-.426147 1.379395-.798157 2.767212-1.125366 4.134033-.001099.004089-.002014.007996-.003052.012146-.249756 1.043945-.465759 2.067017-.664307 3.072266-.004517.020203-.008484.039307-.01178.059753-.596069 3.029175-.980835 5.827148-1.216003 8.004517-.111633 1.036133-.202515 2.049072-.281799 3.041504h-2.788086c.08551-1.09729.183777-2.211853.306213-3.342285.431642-3.982912 1.32422-9.957033 3.129884-15.809083z"/><g font-family="'Helvetica Neue', Helvetica, Arial-Unicode, Arial, Sans-serif" font-size="5" font-weight="bold"><text y="105">Created by iconcheese</text><text y="110">from the Noun Project</text></g></svg>